# xmcd
#
# Track frame offsets:
#	150
#	18089
#	43226
#	66633
#	87005
#	112246
#	131100
#	154431
#	173065
#	193226
#	218081
#	235961
#	250989
#	276912
#	300278
#	319363
#
# Disc length: 4550 seconds
#
# Revision: 5
# Processed by: cddbd v1.5.2PL0 Copyright (c) Steve Scherf et al.
# Submitted via: dBpowerAMP V4.0
#
DISCID=f111c410
DTITLE=Varios - Café Del Mar Vol.14
DYEAR=2007
DGENRE=
TTITLE0=Loving You
TTITLE1=Night Highway
TTITLE2=Cabriolet Tour
TTITLE3=Longitude
TTITLE4=Genesis
TTITLE5=Una Passion Perdida
TTITLE6=Soulsmooth
TTITLE7=Soul Connection
TTITLE8=Missing
TTITLE9=Do Tara Alap
TTITLE10=Dans Les Rues De Barcelone
TTITLE11=Luz De Hielo
TTITLE12=El Alba
TTITLE13=Land Of Eternal Sunset
TTITLE14=Carma
TTITLE15=Training
EXTD=
EXTT0=
EXTT1=
EXTT2=
EXTT3=
EXTT4=
EXTT5=
EXTT6=
EXTT7=
EXTT8=
EXTT9=
EXTT10=
EXTT11=
EXTT12=
EXTT13=
EXTT14=
EXTT15=
PLAYORDER=
